<svg width="504" height="408" viewBox="0 0 504 408" fill="none" xmlns="http://www.w3.org/2000/svg">
<path style="mix-blend-mode:hard-light" d="M390.008 54.7656H207.048C195.752 54.7656 186.595 63.9228 186.595 75.2187V299.194C186.595 310.49 195.752 319.647 207.048 319.647H390.008C401.304 319.647 410.461 310.49 410.461 299.194V75.2187C410.461 63.9228 401.304 54.7656 390.008 54.7656Z" fill="url(#paint0_linear)"/>
<path style="mix-blend-mode:hard-light" d="M389.413 55H206.453C195.157 55 186 64.1572 186 75.4531V299.428C186 310.724 195.157 319.881 206.453 319.881H389.413C400.709 319.881 409.866 310.724 409.866 299.428V75.4531C409.866 64.1572 400.709 55 389.413 55Z" fill="url(#paint1_linear)"/>
<g opacity="0.76">
<path opacity="0.76" d="M266.699 95.8006C265.269 91.7506 263.054 88.0228 260.18 84.8312C257.306 81.6396 253.83 79.0469 249.951 77.202C246.073 75.357 241.868 74.2962 237.579 74.0803C233.289 73.8644 228.999 74.4977 224.955 75.9439C220.911 77.3901 217.192 79.6206 214.012 82.5076C210.833 85.3945 208.254 88.8811 206.425 92.767C204.596 96.653 203.552 100.862 203.354 105.152C203.155 109.443 203.806 113.73 205.269 117.768C205.515 118.46 205.785 119.14 206.072 119.802C209.447 127.564 215.707 133.71 223.53 136.943C231.352 140.175 240.125 140.24 247.995 137.125C255.864 134.009 262.215 127.957 265.705 120.246C269.195 112.535 269.552 103.769 266.699 95.8006ZM244.219 129.827C238.379 131.921 231.961 131.716 226.267 129.252C220.573 126.788 216.03 122.251 213.558 116.56C213.341 116.059 213.139 115.551 212.956 115.035C211.328 110.481 211.087 105.546 212.263 100.855C213.439 96.1637 215.98 91.9266 219.564 88.6793C223.148 85.4321 227.614 83.3205 232.399 82.6117C237.183 81.9029 242.07 82.6286 246.441 84.6971C250.813 86.7656 254.473 90.0839 256.959 94.2326C259.445 98.3812 260.645 103.174 260.407 108.004C260.169 112.835 258.504 117.486 255.623 121.371C252.742 125.255 248.773 128.198 244.219 129.827Z" fill="white"/>
</g>
<path style="mix-blend-mode:hard-light" d="M401.753 16H195.304C190.494 16 186.595 19.8989 186.595 24.7085V26.9108C186.595 31.7204 190.494 35.6193 195.304 35.6193H401.753C406.563 35.6193 410.462 31.7204 410.462 26.9108V24.7085C410.462 19.8989 406.563 16 401.753 16Z" fill="url(#paint2_linear)"/>
<path d="M329.416 193.495L363.611 195.424L390.869 157.827L389.026 156.492L362.496 193.083L328.436 191.162L289.381 235.699L248.493 226.841L208.096 264.957L209.659 266.614L249.185 229.316L290.207 238.208L329.416 193.495Z" fill="white"/>
<path d="M295.726 235.668C295.98 236.841 295.88 238.063 295.439 239.18C294.999 240.296 294.237 241.257 293.25 241.94C292.264 242.623 291.097 242.999 289.897 243.019C288.697 243.039 287.518 242.703 286.509 242.053C285.5 241.404 284.706 240.469 284.228 239.368C283.75 238.267 283.609 237.049 283.823 235.869C284.038 234.688 284.597 233.597 285.431 232.734C286.265 231.871 287.336 231.275 288.509 231.02C289.288 230.852 290.093 230.838 290.877 230.98C291.662 231.122 292.41 231.418 293.081 231.849C293.751 232.281 294.329 232.84 294.783 233.496C295.237 234.151 295.557 234.889 295.726 235.668Z" fill="white"/>
<path d="M334.845 191.426C335.099 192.599 334.999 193.821 334.558 194.937C334.118 196.054 333.356 197.014 332.369 197.698C331.383 198.381 330.216 198.757 329.016 198.777C327.816 198.797 326.637 198.461 325.628 197.811C324.619 197.161 323.825 196.227 323.347 195.126C322.869 194.025 322.728 192.807 322.942 191.626C323.156 190.445 323.716 189.355 324.55 188.492C325.384 187.629 326.455 187.032 327.628 186.778C328.407 186.609 329.212 186.596 329.996 186.738C330.781 186.88 331.529 187.176 332.199 187.607C332.87 188.039 333.448 188.598 333.902 189.253C334.356 189.909 334.676 190.647 334.845 191.426Z" fill="white"/>
<path d="M368.658 192.778C368.912 193.951 368.812 195.173 368.372 196.289C367.931 197.405 367.169 198.366 366.183 199.049C365.196 199.733 364.029 200.108 362.829 200.129C361.629 200.149 360.45 199.813 359.441 199.163C358.432 198.513 357.638 197.579 357.16 196.478C356.682 195.377 356.541 194.159 356.756 192.978C356.97 191.797 357.529 190.706 358.363 189.843C359.197 188.98 360.269 188.384 361.442 188.13C362.221 187.961 363.025 187.947 363.81 188.09C364.594 188.232 365.343 188.527 366.013 188.959C366.683 189.39 367.262 189.95 367.715 190.605C368.169 191.26 368.49 191.999 368.658 192.778Z" fill="white"/>
<path d="M254.737 227.356C254.991 228.529 254.891 229.751 254.451 230.867C254.01 231.983 253.248 232.944 252.262 233.627C251.275 234.311 250.108 234.687 248.908 234.707C247.708 234.727 246.529 234.391 245.52 233.741C244.511 233.091 243.717 232.157 243.239 231.056C242.761 229.955 242.621 228.737 242.835 227.556C243.049 226.375 243.608 225.284 244.442 224.421C245.277 223.558 246.348 222.962 247.521 222.708C248.3 222.539 249.104 222.525 249.889 222.668C250.673 222.81 251.422 223.105 252.092 223.537C252.762 223.968 253.341 224.528 253.795 225.183C254.248 225.838 254.569 226.577 254.737 227.356Z" fill="white"/>
<path d="M267.581 251.199H242.735V255.985H267.581V251.199Z" fill="white"/>
<path d="M284.864 202.098H260.017V206.884H284.864V202.098Z" fill="white"/>
<path d="M336.404 236.312H311.558V241.099H336.404V236.312Z" fill="white"/>
<path d="M358.693 169.117H333.847V173.903H358.693V169.117Z" fill="white"/>
<path d="M394.78 209.156H369.933V213.942H394.78V209.156Z" fill="white"/>
<path d="M295.797 98.4766H288.435V139.413H295.797V98.4766Z" fill="url(#paint3_linear)"/>
<path d="M308.727 87.5625H301.364V139.413H308.727V87.5625Z" fill="url(#paint4_linear)"/>
<path d="M322.3 93.2734H314.934V139.415H322.3V93.2734Z" fill="url(#paint5_linear)"/>
<path d="M336.235 106.527H328.873V139.413H336.235V106.527Z" fill="url(#paint6_linear)"/>
<path d="M295.797 113.453H288.435V139.414H295.797V113.453Z" fill="#007BDE"/>
<path d="M308.727 106.527H301.364V139.413H308.727V106.527Z" fill="#007BDE"/>
<path d="M322.3 110.152H314.934V139.415H322.3V110.152Z" fill="#007BDE"/>
<path d="M336.236 118.945H328.874V139.413H336.236V118.945Z" fill="#007BDE"/>
<path d="M350.426 111.949H343.064V139.413H350.426V111.949Z" fill="url(#paint7_linear)"/>
<path d="M363.356 91.75H355.993V139.413H363.356V91.75Z" fill="url(#paint8_linear)"/>
<path d="M376.925 100.492H369.562V139.413H376.925V100.492Z" fill="url(#paint9_linear)"/>
<path d="M390.865 79.2852H383.502V139.414H390.865V79.2852Z" fill="url(#paint10_linear)"/>
<path d="M350.426 124.781H343.063V139.413H350.426V124.781Z" fill="#007BDE"/>
<path d="M363.356 117.609H355.993V139.416H363.356V117.609Z" fill="#007BDE"/>
<path d="M376.925 119.953H369.562V139.415H376.925V119.953Z" fill="#007BDE"/>
<path d="M390.865 94.7266H383.503V139.413H390.865V94.7266Z" fill="#007BDE"/>
<path d="M162.706 248.304C162.706 248.304 163.85 250.173 163.992 251.71C164.104 252.918 165.114 254.727 165.562 255.73C166.011 256.732 167.432 261.252 167.473 262.43C167.495 262.909 166.422 265.945 166.572 266.917C166.721 267.889 167.282 269.811 166.411 269.938C165.54 270.065 164.541 268.491 164.541 268.491C164.564 268.738 164.514 268.986 164.398 269.205C164.281 269.425 164.104 269.605 163.887 269.725C162.455 270.391 161.696 269.804 161.696 269.804C161.696 269.804 161.165 270.787 160.503 270.925C159.037 271.217 158.323 270.634 158.323 270.634C157.846 270.992 157.263 271.179 156.667 271.165C156.287 271.151 155.917 271.038 155.595 270.837C155.272 270.637 155.007 270.355 154.827 270.021C154.827 270.021 153.189 270.353 152.715 269.587C152.24 268.82 152.322 268.009 152.124 267.317C151.926 266.625 152.075 260.366 154.203 255.864C156.33 251.362 153.661 246.969 153.661 246.969L162.706 248.304Z" fill="#EEA886"/>
<path d="M164.8 267.899C164.8 267.899 164.946 262.29 163.469 261.093C161.992 259.897 161.823 261.924 161.823 261.924C161.823 261.924 162.025 259.919 160.41 259.65C158.795 259.381 158.727 261.759 158.727 261.759C158.689 261.545 158.606 261.341 158.484 261.16C158.363 260.98 158.204 260.827 158.02 260.711C157.835 260.596 157.628 260.52 157.413 260.489C157.197 260.459 156.978 260.473 156.768 260.533C155.07 260.85 155.474 262.817 155.474 262.817C155.474 262.817 153.855 260.888 152.805 262.742C151.032 265.876 152.741 269.574 152.741 269.574C152.741 269.574 153.242 270.423 154.854 270.008C154.854 270.008 155.934 272.184 158.35 270.621C158.35 270.621 160.821 271.982 161.715 269.798C161.704 269.802 164.426 271.096 164.8 267.899Z" fill="#DB9C7C"/>
<path d="M181.745 167.455C181.745 167.455 172.136 199.477 168.89 211.289C167.873 214.994 165.409 250.37 164.972 251.795C164.534 253.219 152.352 255.16 152.352 255.16C152.352 255.16 153.848 210.903 153.964 208.488C154.08 206.072 167.425 156.652 171.283 154.887C174.181 153.567 175.714 154.659 179.367 157.374C184.494 161.191 181.745 167.455 181.745 167.455Z" fill="#24285B"/>
<path d="M300.849 116.498C300.849 116.498 300.639 117.743 300.284 118.24C300.284 118.24 299.562 119.1 299.087 119.736C298.963 119.899 298.848 120.07 298.743 120.248C298.452 120.771 297.973 122.009 296.926 123.071C295.879 124.133 291.8 127.509 291.8 127.509L288.304 124.544L284.677 122.918C284.677 122.918 286.707 114.086 287.567 112.983C287.65 112.878 287.738 112.778 287.833 112.684C288.651 111.82 289.624 111.521 290.106 111.117C290.282 110.971 292.151 109.621 292.817 109.797C293.192 109.869 293.543 110.035 293.837 110.28C294.13 110.526 294.355 110.842 294.492 111.199C294.492 111.199 296.279 111.749 296.979 112.796C296.979 112.796 298.642 113.252 299.136 114.804C299.136 114.789 300.778 115.436 300.849 116.498Z" fill="#EFAA88"/>
<path d="M233.076 176.031L235.556 175.115C235.556 175.115 232.46 167.846 231.11 168.011C229.931 168.189 228.763 168.428 227.61 168.728L233.076 176.031Z" fill="#EAD8CF"/>
<path d="M233.641 177.283C233.323 177.048 228.365 167.535 228.365 167.535L217.769 168.975L223.504 180.245L233.641 177.283Z" fill="#DA9B5B"/>
<path d="M173.95 386.091C173.95 386.091 173.071 392.171 172.962 393.084C172.854 393.996 163.218 392.545 163.218 392.545L162.44 385.31C162.44 385.31 172.746 385.243 173.95 386.091Z" fill="#424773"/>
<path d="M173.067 392.314C173.067 392.314 176.118 395.978 179.05 397.575C181.981 399.171 186.64 399.818 188.397 401.456C189.658 402.649 192.989 407.786 180.728 407.682C168.468 407.577 162.556 408.407 161.244 406.44C159.931 404.473 163.143 391.902 163.143 391.902C163.143 391.902 166.052 392.949 173.067 392.314Z" fill="#292C47"/>
<path d="M242.97 386.091C242.97 386.091 242.095 392.171 241.987 393.084C241.878 393.996 232.243 392.545 232.243 392.545L231.465 385.31C231.465 385.31 241.766 385.243 242.97 386.091Z" fill="#424773"/>
<path d="M242.088 392.314C242.088 392.314 245.143 395.978 248.093 397.575C251.043 399.171 261.928 400.484 263.655 402.136C264.915 403.329 267.021 408.119 249.761 407.682C237.504 407.364 231.588 408.407 230.272 406.44C228.956 404.473 232.175 391.902 232.175 391.902C232.175 391.902 234.909 393.02 242.088 392.314Z" fill="#292C47"/>
<path d="M181.925 229.891C181.925 229.891 172.873 244.271 173.549 257.272C174.226 270.273 170.266 284.463 168.905 298.029C167.391 313.169 161.188 349.012 160.963 357.108C160.739 365.203 161.924 391.067 161.924 391.067L174.342 391.351C174.342 391.351 184.774 328.694 187.474 322.3C190.174 315.906 203.571 270.326 204.02 265.211C204.468 260.095 181.925 229.891 181.925 229.891Z" fill="#292C47"/>
<path d="M229.577 231.84C229.577 231.84 236.397 267.47 237.298 275.427C238.2 283.384 238.794 313.94 239.246 318.906C239.699 323.872 243.453 383.829 244.65 391.367H228.773C228.773 391.367 216.587 347.675 216.587 327.012C216.587 306.35 207.172 282.072 201.096 268.431C195.02 254.791 181.107 254.469 177.371 229.17C177.371 229.155 224.518 223.812 229.577 231.84Z" fill="#292C47"/>
<path d="M197.031 108.981C197.031 108.981 209.18 104.441 214.781 113.692C220.382 122.943 219.844 141.455 213.719 143.732C207.594 146.01 198.389 144.817 195.259 139.032C192.129 133.248 189.276 124.876 189.429 119.286C189.583 113.696 193.838 110.596 197.031 108.981Z" fill="#EEA886"/>
<path d="M212.399 144.169C212.399 144.169 211.894 147.448 212.732 149.067C213.569 150.686 196.99 150.723 196.99 150.723C196.99 150.723 195.644 141.933 193.094 134.507C190.544 127.081 212.399 144.169 212.399 144.169Z" fill="#EEA886"/>
<path d="M193.094 134.493C193.094 134.493 194.238 136.362 198.908 135.648C203.579 134.934 209.273 128.704 211.225 128.02C213.177 127.336 213.192 126.192 213.192 126.192L214.415 127.975L216.486 128.106C216.486 128.106 214.598 122.55 217.447 120.284C220.296 118.018 214.49 102.295 199.499 107.53C199.499 107.53 187.998 110.7 188.416 117.251C188.835 123.802 190.522 131.236 193.094 134.493Z" fill="#353A3D"/>
<path d="M213.715 148.855C213.715 148.855 213.663 145.771 212.264 145.49C210.866 145.21 196.814 143.841 195.098 144.518V148.115C195.098 148.115 198.407 150.149 213.715 148.855Z" fill="#E2D2CA"/>
<path d="M212.885 123.814C212.623 122.718 209.83 119.581 208.772 122.939C207.714 126.297 210.384 130.813 211.879 130.417C213.375 130.021 213.547 126.592 212.885 123.814Z" fill="#EEA886"/>
<path d="M269.466 185.336H269.443C269.541 185.377 269.552 185.381 269.466 185.336Z" fill="#323657"/>
<path d="M236.965 153.533C227.333 152.262 213.73 148.856 213.73 148.856L195.113 148.108C195.113 148.108 178.025 151.869 171.298 154.905C170.659 155.193 170.655 170.15 168.905 174.072L174.484 185.839C174.484 185.839 177.707 209.157 178.377 219.525C178.683 224.285 171.728 264.16 171.728 264.16C171.728 264.16 179.18 266.354 191.886 267.753C204.592 269.151 236.337 267.248 236.539 265.745C236.741 264.242 230.388 209.867 230.108 207.04C229.678 202.718 231.603 179.745 231.603 179.745C234.535 177.471 260.294 165.513 267.32 159.284C269.189 157.616 277.139 149.888 279.393 147.218C287.384 137.769 293.935 129.666 294.724 127.916C295.629 126.925 286.042 121.713 285.174 121.421C284.426 121.167 273.613 135.163 269.47 139.665C267.6 141.673 259.912 147.278 259.912 147.278C259.912 147.278 242.974 153.888 236.965 153.533Z" fill="#24285B"/>
<path d="M193.569 110.074C193.569 110.074 178.078 111.286 193.094 134.495L193.569 110.074Z" fill="#353A3D"/>
<path d="M390.809 389.455C390.809 389.455 387.548 394.316 382.957 395.389C378.365 396.462 373.874 398.122 373.841 400.998C373.807 403.873 387.07 405.608 392.304 402.695C400.123 398.351 400.904 399.663 401.783 397.491C402.662 395.318 400.74 389.511 400.796 388.819C400.882 387.993 390.809 389.455 390.809 389.455Z" fill="#353A3D"/>
<path d="M391.317 387.062C391.317 387.062 390.723 389.421 390.809 389.47C390.895 389.518 401.121 390.737 400.811 388.845C400.56 387.312 400.205 385.645 400.205 385.645L391.317 387.062Z" fill="#81807E"/>
<path d="M425.213 389.143C425.213 389.143 422.887 393.813 418.913 395.402C414.661 397.103 411.255 399.055 411.333 401.871C411.412 404.686 421.721 407.536 429.221 402.136C433.963 398.722 435.462 398.707 436.225 396.557C436.988 394.407 434.905 388.829 434.931 388.152C434.969 387.318 425.213 389.143 425.213 389.143Z" fill="#353A3D"/>
<path d="M425.097 386.72C425.097 386.72 425.127 389.098 425.213 389.143C425.299 389.188 435.181 390.003 434.934 388.152C434.737 387.038 434.416 385.949 433.977 384.906L425.097 386.72Z" fill="#81807E"/>
<path d="M388.872 244.111C388.872 244.111 379.692 284.603 377.595 296.934C375.811 307.43 374.39 318.363 375.243 325.939C376.301 335.32 389.582 383.944 389.029 386.696C388.476 389.448 402.924 387.138 402.924 387.138C402.924 387.138 392.828 332.898 394.843 322.824C396.339 315.346 409.426 265.683 411.438 268.233C413.449 270.783 415.925 315.107 417.42 322.45C418.916 329.794 423.47 387.949 423.47 387.949C423.47 387.949 433.671 389.445 436.393 387.149C436.393 387.149 437.634 337.504 436.688 323.71C436.314 318.453 442.846 260.676 434.486 237.415C430.062 225.113 388.872 244.111 388.872 244.111Z" fill="#2D3133"/>
<path d="M348.915 207.301C355.459 206.385 376.043 215.501 377.912 214.813C379.199 214.342 382.216 204.504 384.374 197.059C385.649 192.658 386.617 189.091 386.755 188.796C386.54 191.455 386.563 194.128 386.827 196.783C386.853 197.067 386.886 197.358 386.92 197.654C386.92 197.729 386.92 197.807 386.946 197.886C387.149 199.564 387.459 201.228 387.873 202.866C388.528 205.39 388.838 208.711 388.954 212.214C388.952 212.241 388.952 212.269 388.954 212.296C388.954 212.379 388.954 212.457 388.954 212.539C388.954 212.622 388.954 212.603 388.954 212.637C389.134 219.012 388.696 225.884 388.513 229.541C388.225 235.21 390.087 237.767 390.143 237.831L392.117 237.554L393.542 237.352L395.445 237.087L402.924 236.036L405.627 235.662L406.266 235.573L410.993 234.907L424.326 233.037L425.792 232.832L426.394 232.746L431.423 232.035L433.693 231.718C433.693 231.718 435.626 218.028 435.772 210.629C435.907 203.831 439.545 190.033 440.139 187.82V187.775C440.139 187.753 440.139 187.734 440.139 187.715L440.169 187.618C440.167 187.602 440.167 187.586 440.169 187.569C440.17 187.561 440.17 187.552 440.169 187.543C440.169 187.543 451.054 198.978 453.163 203.966C453.81 205.48 455.78 209.597 458.282 214.611C459.998 211.339 461.071 209.066 461.071 208.497C461.071 208.426 461.071 208.352 461.071 208.273C460.91 203.341 455.743 183.34 451.663 170.272C448.496 163.916 445.763 158.756 444.888 158.127C443.557 157.174 437.971 154.762 433.095 152.848L432.62 152.661C432.167 152.477 431.719 152.306 431.281 152.134L430.638 151.887L430.294 151.756L430.014 151.647C427.576 150.72 425.721 150.073 425.34 150.051C425.276 150.051 425.175 150.051 425.037 150.051C424.899 150.051 424.663 150.051 424.42 150.081C421.406 150.256 412.413 151.098 409.519 151.374L408.618 151.46L405.163 153.035L404.969 153.121C403.716 153.696 402.262 154.463 400.729 155.304C397.719 156.953 394.398 158.879 391.639 160.191C388.939 161.478 385.237 163.269 384.908 163.519L371.216 203.008L347.457 198.667L348.915 207.301Z" fill="#DECBC4"/>
<path d="M390.166 237.829C390.166 237.829 389.163 239.029 388.872 244.111C388.872 244.111 430.122 239.299 434.489 237.403C434.489 237.403 434.661 231.794 433.742 231.704C432.713 231.6 390.166 237.829 390.166 237.829Z" fill="#495055"/>
<path d="M425.344 148.614C425.213 155.087 412.679 158.632 412.679 158.632C412.679 158.632 407.444 152.058 408.69 151.426C409.179 151.18 409.381 150.2 409.437 149.101C409.476 148.12 409.452 147.139 409.366 146.162C409.329 145.705 409.295 145.414 409.295 145.414C409.295 145.414 411.086 143.544 413.363 141.275C417.346 137.337 422.82 132.301 422.827 134.301C422.824 134.427 422.809 134.552 422.782 134.675C421.821 139.192 425.344 148.614 425.344 148.614Z" fill="#EEA886"/>
<path d="M424.297 232.697C424.297 232.697 425.194 238.373 425.273 239.853L427.183 239.479C427.183 239.479 426.656 233.474 426.346 232.465L424.297 232.697Z" fill="#353A3D"/>
<path d="M393.605 237.168C393.605 237.168 392.884 242.328 392.857 244.272L394.877 244.011C394.877 244.011 395.292 237.568 395.52 236.906L393.605 237.168Z" fill="#353A3D"/>
<path d="M420.517 139.129C420.494 139.166 419.963 139.959 419.055 141.103C417.129 143.522 413.513 147.497 409.445 149.097C409.484 148.117 409.46 147.136 409.374 146.158C408.955 146.15 408.538 146.099 408.129 146.009C408.953 144.623 409.863 143.29 410.855 142.019L413.371 141.271L420.517 139.129Z" fill="#A77860"/>
<path d="M422.92 134.386C421.836 136.745 420.808 138.454 420.516 139.131C420.128 139.857 419.636 140.522 419.054 141.105C416.986 143.349 413.15 146.265 409.374 146.16C408.955 146.152 408.538 146.101 408.128 146.011C406.607 145.678 404.804 144.971 403.813 143.02C395.995 127.712 401.656 115.189 401.656 115.189C401.656 115.189 423.04 109.143 426.383 115.563C428.727 120.11 425.467 128.837 422.92 134.386Z" fill="#EEA886"/>
<path d="M401.652 115.202C401.652 115.202 399.667 115.094 399.177 111.329C398.687 107.563 399.671 106.576 399.671 106.576C399.671 106.576 408.499 102.882 411.669 102.403C414.84 101.925 422.633 101.461 424.461 103.551C424.461 103.551 428.899 102.519 430.111 109.889C432.029 121.578 423.571 132.93 423.571 132.93C423.571 132.93 423.642 125.294 421.96 124.281C420.277 123.268 418.822 125.676 418.822 125.676L415.375 126.293C415.375 126.293 420.61 114.993 414.332 114.574C408.054 114.155 405.246 115.857 401.652 115.202Z" fill="#163342"/>
<path d="M418.916 122.634C419.245 119.269 425.329 117.982 424.921 121.512C424.513 125.042 421.518 128.429 420.131 128.31C418.744 128.19 418.665 125.199 418.916 122.634Z" fill="#EEA886"/>
<path d="M461.153 208.479C461.153 208.408 461.153 208.333 461.153 208.255C461.037 203.334 458.614 183.632 454.535 170.568C452.557 164.211 452.101 159.788 451.334 159.242C450.007 158.288 438.191 154.792 433.177 152.829L432.702 152.642C432.25 152.459 431.801 152.287 431.364 152.115L430.72 151.868L430.376 151.737L430.096 151.629L430.07 151.659C428.096 153.912 426.249 156.272 424.536 158.73C419.361 166.092 412.616 178.009 413.651 189.017C413.98 192.55 414.399 197.617 415.076 203.315C415.136 203.805 415.199 204.295 415.259 204.788C415.427 206.101 415.611 207.439 415.809 208.793C415.928 209.606 416.053 210.423 416.183 211.246C417.551 219.782 421.851 225.6 425.665 232.559C425.699 232.615 425.729 232.675 425.762 232.735L425.818 232.836L426.061 233.281C426.192 233.524 426.319 233.77 426.435 234.028C426.51 234.171 426.585 234.313 426.656 234.455C427.404 235.857 428.103 237.289 428.795 238.729C429.244 239.656 429.683 240.586 430.115 241.518L430.246 241.806L431.85 245.545C432.179 246.315 432.538 247.145 432.897 247.983C433.143 248.559 433.394 249.135 433.644 249.696C433.858 250.185 434.06 250.66 434.254 251.113C434.688 252.122 435.065 253.008 435.327 253.625C435.525 254.085 435.656 254.399 435.701 254.508C437.013 257.791 437.944 260.326 438.401 261.507L438.666 262.255L451.862 254.971C454.367 253.719 453.058 246.966 452.116 244.326C451.222 241.938 450.178 239.609 448.99 237.353C448.481 236.358 447.95 235.352 447.408 234.339C451.521 227.122 455.717 219.681 458.368 214.626C460.08 211.302 461.153 209.029 461.153 208.479ZM440.173 187.828V187.783C440.173 187.76 440.173 187.742 440.173 187.723C440.173 187.704 440.173 187.656 440.203 187.626C440.201 187.61 440.201 187.593 440.203 187.577C440.203 187.577 446.623 197.609 446.137 206.325C446.062 207.682 444.712 211.111 442.749 215.505C442.035 217.109 441.254 218.836 440.394 220.639C440.36 220.568 440.33 220.489 440.3 220.414C439.07 217.423 438.274 214.607 438.274 212.151C438.315 212.113 438.857 192.991 440.173 187.809V187.828Z" fill="#3C4145"/>
<path d="M340.165 193.925L370.045 200.431L384.291 163.182C384.605 162.935 388.688 160.736 391.395 159.442C394.211 158.1 397.752 156.451 400.93 154.989L405.043 153.086L405.144 153.164C405.144 153.164 403.379 159.039 401.098 173.696C401.02 174.19 400.945 174.691 400.867 175.192C400.867 175.252 400.867 175.311 400.84 175.371C400.788 175.708 400.736 176.052 400.687 176.4C400.687 176.441 400.687 176.482 400.687 176.523C400.65 176.755 400.616 176.994 400.582 177.23C400.495 177.808 400.409 178.399 400.324 179.002C399.307 186.136 397.879 198.277 396.507 210.538C395.422 220.2 392.951 230.116 392.166 237.516C391.925 239.387 391.582 241.243 391.137 243.076C391.081 243.323 391.021 243.573 390.962 243.824C388.752 253.172 384.459 266.382 384.459 266.382L383.21 265.227L379.509 261.809C379.091 261.425 378.791 260.93 378.644 260.382C378.497 259.833 378.509 259.255 378.679 258.713C380.731 252.091 387.709 228.65 388.987 212.168C389.387 206.989 387.866 202.11 386.998 197.488C386.981 197.527 386.966 197.567 386.953 197.608C386.205 199.65 385.405 201.874 384.583 204.036C382.38 209.842 380.129 215.227 379.191 215.567C377.101 216.337 337.757 205.58 337.484 204.036L340.165 193.925Z" fill="#3C4145"/>
<path d="M426.611 167.68L420.516 171.12L423.134 173.779L416.198 211.234C414.784 202.454 414.141 194.116 413.662 189.005C412.066 171.984 429.049 152.791 430.115 151.613C430.93 151.924 431.812 152.264 432.732 152.627L426.611 167.68Z" fill="#51565C"/>
<path d="M405.227 153.008C405.227 153.008 402.946 160.449 400.291 179.021C399.274 186.159 397.846 198.304 396.474 210.561L395.053 175.48L397.958 172.335L395.374 169.109L400.901 154.997L405.014 153.094L405.227 153.008Z" fill="#51565C"/>
<path d="M430.399 151.687L425.344 148.617C425.344 148.617 425.201 151.392 412.679 158.634L416.235 168.648L430.399 151.687Z" fill="#F5E2D9"/>
<path d="M409.34 150.016C409.34 150.016 409.538 153.007 412.672 158.616L405.732 167.661L405.227 152.988L409.34 150.016Z" fill="#F5E2D9"/>
<path d="M412.705 158.633C412.705 158.633 414.051 164.01 413.565 165.517C413.565 165.517 410.607 166.593 408.484 165.247C409.513 162.823 410.94 160.587 412.705 158.633Z" fill="#323657"/>
<path d="M405.747 236.222C404.999 232.427 405.71 221.053 405.747 220.57L406.394 220.611C406.394 220.727 405.646 232.382 406.394 236.095L405.747 236.222Z" fill="#AD9F99"/>
<path d="M411.011 234.473C411.011 234.473 404.942 235.198 402.935 235.699L403.196 242.501L411.146 241.652L411.011 234.473Z" fill="#69737A"/>
<path d="M409.684 164.767C409.684 164.767 402.912 181.862 404.019 200.996C405.163 220.836 407.04 228.03 407.04 228.03L411.213 233.264L413.056 226.829C413.056 226.829 407.448 201.538 411.071 176.923C411.725 172.466 412.697 164.012 412.697 164.012L409.684 164.767Z" fill="#323657"/>
<path d="M430.025 245.497C430.025 245.497 428.574 248.402 427.12 248.888C425.665 249.374 423.549 251.734 423.549 251.734L433.779 257.118C433.779 257.118 436.501 251.794 436.621 248.402C436.74 245.011 430.025 245.497 430.025 245.497Z" fill="#EEA886"/>
<path d="M429.053 245.77L428.376 247.134C428.376 247.134 434.871 251.883 436.625 252.186L437.223 250.372L429.053 245.77Z" fill="#DECBC4"/>
<path d="M428.376 245.832C428.376 245.832 433.237 249.859 437.35 251.714L451.147 226.897L443.998 213.062C443.998 213.062 428.698 243.413 428.376 245.832Z" fill="#3C4145"/>
<path d="M387.163 188.849C386.939 193.437 386.972 197.517 386.972 197.517C386.972 197.539 386.972 197.662 386.972 197.868C386.972 197.79 386.954 197.711 386.946 197.636C386.198 199.678 385.398 201.903 384.576 204.064C384.396 201.733 384.334 199.394 384.392 197.057C384.721 184.186 388.771 177.434 388.771 177.434C387.821 179.688 387.376 184.497 387.163 188.849Z" fill="#2D3133"/>
<path d="M448.975 237.302L437.93 250.644L447.405 234.281C447.947 235.302 448.478 236.308 448.975 237.302Z" fill="#2D3133"/>
<path d="M368.774 220.575H343.273C342.423 220.575 341.598 220.29 340.93 219.765C340.262 219.24 339.79 218.506 339.59 217.681L328.514 171.943C328.38 171.386 328.373 170.806 328.495 170.246C328.617 169.687 328.865 169.162 329.219 168.712C329.573 168.261 330.025 167.897 330.54 167.647C331.055 167.396 331.621 167.266 332.194 167.266H357.695C358.545 167.265 359.37 167.551 360.038 168.077C360.706 168.602 361.178 169.337 361.378 170.163L372.453 215.897C372.588 216.454 372.594 217.034 372.472 217.594C372.35 218.154 372.103 218.678 371.748 219.129C371.394 219.579 370.942 219.943 370.427 220.194C369.912 220.444 369.347 220.574 368.774 220.575Z" fill="#24285B"/>
<path d="M337.582 207.864C338.831 206.708 341.235 206.035 343.299 204.659C345.363 203.283 343.636 201.862 343.636 201.862C345.756 201.137 345.528 200.168 345.255 199.51C344.881 198.62 342.577 198.871 342.577 198.871C343.571 198.659 344.549 198.38 345.505 198.037C346.358 197.663 346.066 196.168 344.757 195.7C343.449 195.233 338.098 196.549 338.098 196.549C338.098 196.549 338.969 196.123 341.609 194.799C344.249 193.475 344.825 192.271 343.269 191.692C342.189 191.292 340.065 192.133 335.985 194.874C332.916 196.938 333.166 197.203 333.166 197.203C333.166 197.203 336.09 209.228 337.582 207.864Z" fill="#EEA886"/>
<rect style="mix-blend-mode:hard-light" x="55" width="107" height="89" rx="8" fill="url(#paint11_linear)"/>
<rect style="mix-blend-mode:hard-light" x="55" width="107" height="89" rx="8" fill="url(#paint12_linear)"/>
<rect opacity="0.5" x="64.9494" y="12.9494" width="88.1012" height="63.7482" rx="3.7977" stroke="#F7F7F7" stroke-width="1.89885"/>
<rect x="78.7529" y="40.6953" width="15.1342" height="21.173" rx="2.58027" fill="#FF7979"/>
<rect x="101.433" y="27.7734" width="15.1342" height="34.0967" rx="2.58027" fill="#9EFFAE"/>
<rect x="124.113" y="33.2734" width="15.1342" height="28.5973" rx="2.58027" fill="#FFDEAD"/>
<ellipse opacity="0.8" cx="468.465" cy="46.5" rx="23.805" ry="4.5" fill="#007BDE"/>
<ellipse cx="469.5" cy="28.5" rx="34.5" ry="6.5" fill="#007BDE"/>
<ellipse opacity="0.6" cx="469.5" cy="59.5" rx="15.87" ry="4.5" fill="#007BDE"/>
<ellipse opacity="0.4" cx="469.5" cy="75.5" rx="8.97" ry="2.5" fill="#007BDE"/>
<g opacity="0.3">
<path fill-rule="evenodd" clip-rule="evenodd" d="M131.715 180.243C131.915 176.834 132.594 173.981 133.161 172.395C134.273 175.176 134.823 177.847 135.009 180.283C137.445 180.469 140.116 181.019 142.897 182.132C141.311 182.698 138.458 183.378 135.049 183.577C134.859 187.196 133.929 190.007 133.161 191.448C132.226 188.831 131.799 186.139 131.688 183.604C129.153 183.493 126.461 183.066 123.844 182.132C125.285 181.364 128.096 180.433 131.715 180.243Z" fill="url(#paint13_linear)"/>
<path fill-rule="evenodd" clip-rule="evenodd" d="M104.828 157.812C104.96 155.544 105.413 153.645 105.79 152.59C106.53 154.441 106.896 156.218 107.02 157.839C108.641 157.963 110.419 158.329 112.271 159.07C111.215 159.447 109.316 159.899 107.047 160.032C106.921 162.441 106.301 164.313 105.79 165.272C105.167 163.53 104.883 161.737 104.809 160.05C103.122 159.976 101.33 159.692 99.5885 159.07C100.547 158.558 102.419 157.939 104.828 157.812Z" fill="url(#paint14_linear)"/>
<path fill-rule="evenodd" clip-rule="evenodd" d="M61.5044 141.836C61.7037 138.428 62.3833 135.574 62.9497 133.988C64.0625 136.77 64.6125 139.441 64.7985 141.877C67.234 142.063 69.9048 142.613 72.6866 143.725C71.1006 144.292 68.2472 144.971 64.8385 145.171C64.6484 148.789 63.7178 151.601 62.9497 153.041C62.0152 150.424 61.5887 147.733 61.4774 145.198C58.9422 145.086 56.2505 144.66 53.6336 143.725C55.0738 142.957 57.8855 142.027 61.5044 141.836Z" fill="url(#paint15_linear)"/>
<path fill-rule="evenodd" clip-rule="evenodd" d="M65.2133 220.175C65.5065 215.16 66.5064 210.962 67.3398 208.629C68.9769 212.722 69.7861 216.651 70.0597 220.234C73.643 220.508 77.5723 221.317 81.665 222.954C79.3317 223.788 75.1336 224.788 70.1186 225.081C69.839 230.405 68.4698 234.542 67.3398 236.66C65.9648 232.81 65.3373 228.85 65.1737 225.12C61.4438 224.957 57.4836 224.329 53.6336 222.954C55.7524 221.824 59.8891 220.455 65.2133 220.175Z" fill="url(#paint16_linear)"/>
<circle cx="95.6822" cy="190.521" r="1.8414" fill="#2F235A"/>
<circle cx="137.94" cy="137.724" r="1.8414" fill="#FE9076"/>
<circle cx="45.3205" cy="183.212" r="1.8414" fill="#FFA400"/>
<circle cx="127.847" cy="218.923" r="1.8414" fill="#23BB86"/>
<path d="M133.428 130.04C129.265 124.322 117.538 112.109 103.934 109" stroke="#FE9076" stroke-width="1.60277" stroke-linecap="round"/>
<path d="M37.5511 178.279C31.3979 174.791 15.6732 168.513 1.99994 171.3" stroke="#FFA400" stroke-width="1.60277" stroke-linecap="round"/>
<path d="M121.526 224.273C118.373 227.056 110.787 234.957 105.668 244.305" stroke="#23BB86" stroke-width="1.60277" stroke-linecap="round"/>
</g>
<defs>
<linearGradient id="paint0_linear" x1="298.526" y1="196.113" x2="298.526" y2="1126.21" gradientUnits="userSpaceOnUse">
<stop stop-color="#44607D"/>
<stop offset="1" stop-color="#F5F5F5"/>
</linearGradient>
<linearGradient id="paint1_linear" x1="297.931" y1="196.347" x2="297.931" y2="1126.45" gradientUnits="userSpaceOnUse">
<stop stop-color="#44607D"/>
<stop offset="1" stop-color="#F5F5F5"/>
</linearGradient>
<linearGradient id="paint2_linear" x1="298.527" y1="-4.79715" x2="298.527" y2="647.37" gradientUnits="userSpaceOnUse">
<stop stop-color="#626E7A"/>
<stop offset="1" stop-color="#F5F5F5"/>
</linearGradient>
<linearGradient id="paint3_linear" x1="288.435" y1="118.945" x2="295.801" y2="118.945" gradientUnits="userSpaceOnUse">
<stop stop-color="#D5E4FF"/>
<stop offset="1" stop-color="#EDFFFE"/>
</linearGradient>
<linearGradient id="paint4_linear" x1="6818.77" y1="57899.1" x2="6963.8" y2="57899.1" gradientUnits="userSpaceOnUse">
<stop stop-color="#D5E4FF"/>
<stop offset="1" stop-color="#EDFFFE"/>
</linearGradient>
<linearGradient id="paint5_linear" x1="7102.94" y1="51890.8" x2="7247.98" y2="51890.8" gradientUnits="userSpaceOnUse">
<stop stop-color="#D5E4FF"/>
<stop offset="1" stop-color="#EDFFFE"/>
</linearGradient>
<linearGradient id="paint6_linear" x1="7387.93" y1="37606.9" x2="7532.96" y2="37606.9" gradientUnits="userSpaceOnUse">
<stop stop-color="#D5E4FF"/>
<stop offset="1" stop-color="#EDFFFE"/>
</linearGradient>
<linearGradient id="paint7_linear" x1="7681.52" y1="31628.6" x2="7826.56" y2="31628.6" gradientUnits="userSpaceOnUse">
<stop stop-color="#D5E4FF"/>
<stop offset="1" stop-color="#EDFFFE"/>
</linearGradient>
<linearGradient id="paint8_linear" x1="7949.06" y1="53500.5" x2="8094.1" y2="53500.5" gradientUnits="userSpaceOnUse">
<stop stop-color="#D5E4FF"/>
<stop offset="1" stop-color="#EDFFFE"/>
</linearGradient>
<linearGradient id="paint9_linear" x1="8229.81" y1="44168.2" x2="8374.78" y2="44168.2" gradientUnits="userSpaceOnUse">
<stop stop-color="#D5E4FF"/>
<stop offset="1" stop-color="#EDFFFE"/>
</linearGradient>
<linearGradient id="paint10_linear" x1="8518.17" y1="66455.4" x2="8663.21" y2="66455.4" gradientUnits="userSpaceOnUse">
<stop stop-color="#D5E4FF"/>
<stop offset="1" stop-color="#EDFFFE"/>
</linearGradient>
<linearGradient id="paint11_linear" x1="108.499" y1="47.4926" x2="108.499" y2="360.005" gradientUnits="userSpaceOnUse">
<stop stop-color="#44607D"/>
<stop offset="1" stop-color="#F5F5F5"/>
</linearGradient>
<linearGradient id="paint12_linear" x1="108.499" y1="47.4926" x2="108.499" y2="360.005" gradientUnits="userSpaceOnUse">
<stop stop-color="#44607D"/>
<stop offset="1" stop-color="#F5F5F5"/>
</linearGradient>
<linearGradient id="paint13_linear" x1="133.371" y1="174.422" x2="133.371" y2="192.312" gradientUnits="userSpaceOnUse">
<stop stop-color="#FFE89E"/>
<stop offset="1" stop-color="#FFBF1A"/>
</linearGradient>
<linearGradient id="paint14_linear" x1="105.93" y1="153.94" x2="105.93" y2="165.848" gradientUnits="userSpaceOnUse">
<stop stop-color="#FFE89E"/>
<stop offset="1" stop-color="#FFBF1A"/>
</linearGradient>
<linearGradient id="paint15_linear" x1="63.1601" y1="136.016" x2="63.1601" y2="153.906" gradientUnits="userSpaceOnUse">
<stop stop-color="#FFE89E"/>
<stop offset="1" stop-color="#FFBF1A"/>
</linearGradient>
<linearGradient id="paint16_linear" x1="67.6493" y1="211.612" x2="67.6493" y2="237.932" gradientUnits="userSpaceOnUse">
<stop stop-color="#FFE89E"/>
<stop offset="1" stop-color="#FFBF1A"/>
</linearGradient>
</defs>
</svg>
