<svg width="447" height="314" viewBox="0 0 447 314" fill="none" xmlns="http://www.w3.org/2000/svg">
<path d="M294.375 192.659L254.653 169.341L223.452 215.773C241.68 230.985 272.303 242.048 288.127 238.67C320.601 231.737 386.224 139.534 395.329 132.514C426.327 108.617 436.404 99.5481 397.616 118.117C360.635 135.821 380.222 118.117 371.162 118.117C360.277 118.877 363.884 128.538 367.924 135.46L294.375 192.659Z" fill="url(#paint0_linear)"/>
<path d="M68.993 157.337C80.1998 149.554 124.482 135.536 143.929 129.5L164.505 131.745C177.469 134.958 205.275 140.438 218.066 145.623C230.857 150.809 254.069 167.345 275.724 181.136L270.611 198.843C266.019 214.746 253.875 227.359 238.158 232.55C234.113 258.272 230.625 300.089 231.201 313.052L80.7149 312.936L73.8253 249.288L42.8365 252.607L16.6602 232.55C49.4371 175.856 54.9844 167.065 68.993 157.337Z" fill="#24285B"/>
<path d="M25.9415 303.592C-21.7389 297.546 9.27224 249.221 17.7259 233.262C27.9507 241.869 40.577 247.12 53.8899 248.303L70.3209 249.762L63.5925 265.284L136.232 282.29L146.423 310.561C139.164 309.325 85.2347 311.11 25.9415 303.592Z" fill="url(#paint1_linear)"/>
<ellipse cx="152.912" cy="148.008" rx="25.9725" ry="18.5082" fill="#000437"/>
<path d="M131.631 147.012L135.262 110.863H170.607L174.667 147.012C173.248 151.269 166.548 159.905 154.141 159.905C138.329 159.905 132.645 151.269 131.631 147.012Z" fill="url(#paint2_linear)"/>
<mask id="mask0" mask-type="alpha" maskUnits="userSpaceOnUse" x="131" y="110" width="44" height="50">
<path d="M131.631 147.012L135.262 110.863H170.607L174.675 147.085C173.255 151.342 166.533 159.906 154.126 159.906C138.313 159.906 132.645 151.269 131.631 147.012Z" fill="url(#paint3_linear)"/>
</mask>
<g mask="url(#mask0)">
<path opacity="0.1" d="M183.345 112.248C151.386 151.791 133.527 119.997 124.302 115.227L130.641 88.495L168.483 83.9766L183.345 112.248Z" fill="black"/>
</g>
<path d="M152.3 125.373C114.182 125.373 107.628 70.6591 119.405 45.6326C145.903 13.2454 179.027 32.138 192.276 45.6326C195.465 66.488 198.983 125.373 152.3 125.373Z" fill="url(#paint4_linear)"/>
<path d="M121.955 48.923C148.979 66.5294 178.938 56.259 190.539 48.923C188.096 56.627 191.556 71.4355 193.592 77.8768C211.176 54.9783 205.427 42.6132 200.355 39.2929C199.51 27.8804 189.135 -0.653779 154.306 0.698815C119.476 2.05141 112.718 26.7532 113.704 35.9114C100.517 53.8333 108.363 71.3557 114.723 77.8767C121.955 63.8366 121.79 53.9872 121.955 48.923Z" fill="#30235B"/>
<path d="M77.5271 307.688C77.5271 307.133 77.9769 306.684 78.5317 306.684H232.924C233.895 306.684 234.682 307.471 234.682 308.442C234.682 311.354 232.32 313.716 229.408 313.716H83.5546C80.2257 313.716 77.5271 311.017 77.5271 307.688Z" fill="#B4B4B4"/>
<rect x="77.5271" y="204.148" width="157.155" height="105.147" rx="2.94666" fill="url(#paint5_linear)"/>
<circle cx="156.104" cy="256.723" r="11.1765" fill="white"/>
<rect style="mix-blend-mode:hard-light" x="340" y="1" width="107" height="89" rx="8" fill="url(#paint6_linear)"/>
<rect style="mix-blend-mode:hard-light" x="340" y="1" width="107" height="89" rx="8" fill="url(#paint7_linear)"/>
<rect opacity="0.5" x="349.949" y="13.9494" width="88.1012" height="63.7482" rx="3.7977" stroke="#F7F7F7" stroke-width="1.89885"/>
<rect x="363.753" y="41.6953" width="15.1342" height="21.173" rx="2.58027" fill="#FF7979"/>
<rect x="386.433" y="28.7734" width="15.1342" height="34.0967" rx="2.58027" fill="#9EFFAE"/>
<rect x="409.113" y="34.2734" width="15.1342" height="28.5973" rx="2.58027" fill="#FFDEAD"/>
<defs>
<linearGradient id="paint0_linear" x1="304.507" y1="57.3213" x2="307.154" y2="233.189" gradientUnits="userSpaceOnUse">
<stop stop-color="#FFEFE0"/>
<stop offset="1" stop-color="#FFBE99"/>
</linearGradient>
<linearGradient id="paint1_linear" x1="140.936" y1="186.486" x2="22.2639" y2="243.361" gradientUnits="userSpaceOnUse">
<stop offset="0.0677966" stop-color="#FFEFE0"/>
<stop offset="1" stop-color="#FFBE99"/>
</linearGradient>
<linearGradient id="paint2_linear" x1="151.93" y1="71.9764" x2="154.01" y2="138.362" gradientUnits="userSpaceOnUse">
<stop stop-color="#FFEFE0"/>
<stop offset="1" stop-color="#FFBE99"/>
</linearGradient>
<linearGradient id="paint3_linear" x1="151.93" y1="71.9764" x2="149.016" y2="147.607" gradientUnits="userSpaceOnUse">
<stop stop-color="#FFEFE0"/>
<stop offset="1" stop-color="#FFBE99"/>
</linearGradient>
<linearGradient id="paint4_linear" x1="155.387" y1="36.5828" x2="155.387" y2="116.302" gradientUnits="userSpaceOnUse">
<stop stop-color="#FFEFE0"/>
<stop offset="1" stop-color="#FFBE99"/>
</linearGradient>
<linearGradient id="paint5_linear" x1="188.555" y1="125.236" x2="130.45" y2="333.73" gradientUnits="userSpaceOnUse">
<stop offset="0.0171777" stop-color="white"/>
<stop offset="1" stop-color="#D7D7D7"/>
</linearGradient>
<linearGradient id="paint6_linear" x1="393.499" y1="48.4926" x2="393.499" y2="361.005" gradientUnits="userSpaceOnUse">
<stop stop-color="#44607D"/>
<stop offset="1" stop-color="#F5F5F5"/>
</linearGradient>
<linearGradient id="paint7_linear" x1="393.499" y1="48.4926" x2="393.499" y2="361.005" gradientUnits="userSpaceOnUse">
<stop stop-color="#44607D"/>
<stop offset="1" stop-color="#F5F5F5"/>
</linearGradient>
</defs>
</svg>
