<svg width="79" height="79" viewBox="0 0 79 79" fill="none" xmlns="http://www.w3.org/2000/svg">
<path d="M39.4997 6.58203C21.3494 6.58203 6.58301 21.3484 6.58301 39.4987C6.58301 57.6489 21.3494 72.4154 39.4997 72.4154C57.6499 72.4154 72.4163 57.6489 72.4163 39.4987C72.4163 21.3484 57.6499 6.58203 39.4997 6.58203ZM32.9196 54.0248L23.0264 44.1529C21.7401 42.8694 21.7375 40.7864 23.0206 39.4997C24.3044 38.2123 26.389 38.2099 27.6758 39.4944L32.913 44.7226L48.0119 29.6237C49.2972 28.3384 51.3811 28.3384 52.6663 29.6237C53.9516 30.909 53.9516 32.9928 52.6663 34.2781L32.9196 54.0248Z" fill="#2FAB73"/>
</svg>
