<svg width="32" height="32" viewBox="0 0 32 32" fill="none" xmlns="http://www.w3.org/2000/svg">
<path d="M0 2.28571C0 1.02335 1.02335 0 2.28571 0H29.7143C30.9767 0 32 1.02335 32 2.28571V6.85714C32 8.11951 30.9767 9.14286 29.7143 9.14286H2.28572C1.02335 9.14286 0 8.11951 0 6.85714V2.28571Z" fill="#436A9F"/>
<path d="M0 16C0 14.7376 1.02335 13.7143 2.28571 13.7143H16C17.2624 13.7143 18.2857 14.7376 18.2857 16V29.7143C18.2857 30.9767 17.2624 32 16 32H2.28571C1.02335 32 0 30.9767 0 29.7143V16Z" fill="#436A9F"/>
<path d="M25.1429 13.7143C23.8805 13.7143 22.8571 14.7376 22.8571 16V29.7143C22.8571 30.9767 23.8805 32 25.1429 32H29.7143C30.9767 32 32 30.9767 32 29.7143V16C32 14.7376 30.9767 13.7143 29.7143 13.7143H25.1429Z" fill="#436A9F"/>
</svg>
