<svg width="32" height="32" viewBox="0 0 32 32" fill="none" xmlns="http://www.w3.org/2000/svg">
<path fill-rule="evenodd" clip-rule="evenodd" d="M1.88 8.10801C0.710479 8.83896 0 10.1208 0 11.5V27.283C0 29.4921 1.79086 31.283 4 31.283H28C30.2091 31.283 32 29.4921 32 27.283V11.5C32 10.1208 31.2895 8.83896 30.12 8.10801L18.12 0.608007C16.8229 -0.202668 15.1771 -0.202669 13.88 0.608006L1.88 8.10801ZM7.1094 12.9524C6.19034 12.3397 4.9486 12.5881 4.3359 13.5071C3.72319 14.4262 3.97154 15.6679 4.8906 16.2806L14.8906 22.9473C15.5624 23.3952 16.4376 23.3952 17.1094 22.9473L27.1094 16.2806C28.0285 15.6679 28.2768 14.4262 27.6641 13.5071C27.0514 12.5881 25.8097 12.3397 24.8906 12.9524L16 18.8795L7.1094 12.9524Z" fill="#436A9F"/>
</svg>
