<svg width="121" height="22" viewBox="0 0 121 22" fill="none" xmlns="http://www.w3.org/2000/svg">
<path d="M1.85619 0H0V21.9467H1.85619V15.8977H5.72144V21.9467H7.59947V0H5.72144V14.0197H1.85619V0Z" fill="black"/>
<path d="M14.2811 15.7667V21.9467H16.1591V15.7667C16.5085 15.6794 16.8361 15.5483 17.1418 15.3518C18.2773 14.6967 19.0198 13.4738 19.0198 12.098V0H17.1418V12.098C17.1418 12.8186 16.7487 13.4519 16.1591 13.7795C15.8752 13.9324 15.5695 14.0197 15.2201 14.0197C14.8707 14.0197 14.565 13.9324 14.2811 13.7795C13.6915 13.4519 13.2984 12.8186 13.2984 12.098V0H11.4204V12.098C11.4204 13.4738 12.1847 14.6967 13.2984 15.3518C13.6041 15.5483 13.9317 15.6794 14.2811 15.7667Z" fill="black"/>
<path d="M24.7187 15.8977H26.6404C27.3611 15.8977 28.0162 15.7012 28.584 15.3518C29.6977 14.6967 30.4402 13.4738 30.4402 12.098V3.79973C30.4402 2.40213 29.6977 1.20107 28.584 0.524102C28.0162 0.196538 27.3611 0 26.6404 0H22.8407V21.9467H24.7187V15.8977ZM28.584 12.098C28.584 13.1462 27.7105 14.0197 26.6404 14.0197H24.7187V1.87803H26.6404C27.7105 1.87803 28.584 2.75153 28.584 3.79973V12.098Z" fill="black"/>
<path d="M41.8605 21.9467V20.0687H36.1391V15.8977H40.8342V14.0197H36.1391V1.87803H41.8605V0H34.2611V21.9467H41.8605Z" fill="black"/>
<path d="M51.4247 17.8194V21.9467H53.2809V17.8194C53.2809 16.6839 52.7786 15.6575 51.9706 14.9587C52.7786 14.2599 53.2809 13.2336 53.2809 12.098V3.79973C53.2809 2.40213 52.5384 1.20107 51.4247 0.524102C50.8569 0.196538 50.2018 0 49.4812 0H45.6814V21.9467H47.5595V15.8977H49.4812C50.5512 15.8977 51.4247 16.7712 51.4247 17.8194ZM49.4812 14.0197H47.5595V1.87803H49.4812C50.5512 1.87803 51.4247 2.75153 51.4247 3.79973V12.098C51.4247 13.1462 50.5512 14.0197 49.4812 14.0197Z" fill="black"/>
<path d="M61.8405 21.9467V1.87803H64.7013V0H57.1018V1.87803H59.9625V21.9467H61.8405Z" fill="black"/>
<path d="M73.8171 15.8977V21.9467H75.6951V3.79973C75.6951 2.40213 74.9526 1.20107 73.8171 0.524102C73.2711 0.196538 72.5942 0 71.8954 0C71.1966 0 70.5414 0.196538 69.9737 0.524102C68.8599 1.20107 68.0956 2.40213 68.0956 3.79973V21.9467H69.9737V15.8977H73.8171ZM69.9737 14.0197V3.79973C69.9737 2.75153 70.8472 1.87803 71.8954 1.87803C72.9654 1.87803 73.8171 2.75153 73.8171 3.79973V14.0197H69.9737Z" fill="black"/>
<path d="M85.2593 17.8194V21.9467H87.1155V17.8194C87.1155 16.6839 86.6132 15.6575 85.8052 14.9587C86.6132 14.2599 87.1155 13.2336 87.1155 12.098V3.79973C87.1155 2.40213 86.373 1.20107 85.2593 0.524102C84.6915 0.196538 84.0364 0 83.3157 0H79.516V21.9467H81.394V15.8977H83.3157C84.3858 15.8977 85.2593 16.7712 85.2593 17.8194ZM83.3157 14.0197H81.394V1.87803H83.3157C84.3858 1.87803 85.2593 2.75153 85.2593 3.79973V12.098C85.2593 13.1462 84.3858 14.0197 83.3157 14.0197Z" fill="black"/>
<path d="M98.5358 7.14088V3.79973C98.5358 2.40213 97.7715 1.20107 96.6578 0.524102C96.09 0.196538 95.4349 0 94.7361 0C94.0154 0 93.3603 0.196538 92.7925 0.524102C91.6788 1.20107 90.9363 2.40213 90.9363 3.79973V18.147C90.9363 19.5228 91.6788 20.7457 92.7925 21.4008C93.3603 21.7502 94.0154 21.9467 94.7361 21.9467C95.4349 21.9467 96.09 21.7502 96.6578 21.4008C97.7715 20.7457 98.5358 19.5228 98.5358 18.147V14.0197H94.7579V15.8977H96.6578V18.147C96.6578 19.1952 95.7843 20.0687 94.7361 20.0687C93.666 20.0687 92.7925 19.1952 92.7925 18.147V3.79973C92.7925 2.72969 93.666 1.87803 94.7361 1.87803C95.7843 1.87803 96.6578 2.72969 96.6578 3.79973V7.14088H98.5358Z" fill="black"/>
<path d="M109.956 21.9467V20.0687H104.235V15.8977H108.93V14.0197H104.235V1.87803H109.956V0H102.357V21.9467H109.956Z" fill="black"/>
<path d="M118.089 21.9467V1.87803H120.95V0H113.351V1.87803H116.211V21.9467H118.089Z" fill="black"/>
</svg>
