<svg width="66" height="36" viewBox="0 0 66 36" fill="none" xmlns="http://www.w3.org/2000/svg">
<path opacity="0.5" d="M65.7162 0H0V35.6378H65.7162V0Z" fill="#24285B"/>
<path d="M57.0643 19.6422L54.8731 17.9326C54.9391 17.3337 54.9391 16.7294 54.8731 16.1306L57.0643 14.4143C57.2641 14.2556 57.4005 14.0306 57.4489 13.78C57.4973 13.5294 57.4546 13.2698 57.3283 13.048L55.0447 9.08748C54.916 8.86538 54.7129 8.6959 54.4714 8.60894C54.2299 8.52199 53.9654 8.52315 53.7247 8.61222L51.1441 9.65515C50.6574 9.30453 50.138 9.00169 49.5931 8.75084L49.1971 6.0115C49.1633 5.75605 49.0373 5.52179 48.8428 5.3528C48.6483 5.18381 48.3987 5.09176 48.1411 5.09399H43.5739C43.314 5.08849 43.0612 5.17906 42.8639 5.34836C42.6666 5.51765 42.5387 5.75376 42.5047 6.0115L42.1021 8.76404C41.5592 9.01479 41.042 9.31765 40.5577 9.66835L37.9639 8.62542C37.7246 8.52873 37.4582 8.52303 37.215 8.60937C36.9718 8.69572 36.7686 8.86815 36.6439 9.09409L34.3603 13.0546C34.2296 13.2769 34.1837 13.539 34.231 13.7925C34.2783 14.046 34.4156 14.2739 34.6177 14.4341L36.8089 16.1438C36.7429 16.7426 36.7429 17.3469 36.8089 17.9458L34.6177 19.662C34.419 19.8217 34.2838 20.0471 34.2366 20.2976C34.1894 20.5482 34.2333 20.8073 34.3603 21.0284L36.6373 24.9889C36.765 25.2119 36.968 25.3822 37.2099 25.4693C37.4517 25.5564 37.7167 25.5546 37.9573 25.4641L40.5379 24.4212C41.0255 24.7704 41.5448 25.0732 42.0889 25.3255L42.4915 28.0648C42.5238 28.3197 42.6485 28.5539 42.8419 28.723C43.0353 28.8921 43.284 28.9844 43.5409 28.9824H48.1081C48.3626 28.9834 48.6089 28.8925 48.8018 28.7263C48.9946 28.5602 49.1209 28.3299 49.1575 28.078L49.5601 25.3255C50.1029 25.0747 50.6202 24.7719 51.1045 24.4212L53.6983 25.4641C53.9377 25.5593 54.2036 25.5643 54.4464 25.4781C54.6892 25.3919 54.8925 25.2204 55.0183 24.9955L57.3019 21.035C57.437 20.8132 57.4874 20.5501 57.4437 20.2941C57.4 20.0381 57.2653 19.8066 57.0643 19.6422ZM45.8443 21.9987C44.8611 22 43.8996 21.7096 43.0814 21.1642C42.2633 20.6189 41.6253 19.8431 41.2481 18.9349C40.8709 18.0268 40.7716 17.0272 40.9626 16.0626C41.1536 15.098 41.6264 14.2118 42.3212 13.516C43.0159 12.8202 43.9015 12.3462 44.8657 12.1538C45.8299 11.9615 46.8295 12.0596 47.738 12.4356C48.6465 12.8116 49.4231 13.4486 49.9695 14.2662C50.5158 15.0837 50.8075 16.0449 50.8075 17.0283C50.8075 18.3431 50.2866 19.6043 49.3589 20.5359C48.4311 21.4675 47.1721 21.9934 45.8575 21.9987H45.8443Z" fill="#436A9F"/>
<path d="M26.507 12.2461H8.53516V15.8435H26.507V12.2461Z" fill="white"/>
<path opacity="0.29" d="M26.507 19.8008H8.53516V23.3982H26.507V19.8008Z" fill="white"/>
</svg>
